<?xml version="1.0" encoding="utf-8"?>
<!-- Generator: Adobe Illustrator 22.1.0, SVG Export Plug-In . SVG Version: 6.00 Build 0)  -->
<svg version="1.1" id="图层_1" xmlns="http://www.w3.org/2000/svg" xmlns:xlink="http://www.w3.org/1999/xlink" x="0px" y="0px"
	 viewBox="0 0 345 210" style="enable-background:new 0 0 345 210;" xml:space="preserve">
<style type="text/css">
	.st0{clip-path:url(#SVGID_2_);fill:#42C2DB;stroke:#28AFFF;stroke-miterlimit:10;}
	.st1{clip-path:url(#SVGID_4_);fill:#42C2DB;stroke:#28AFFF;stroke-miterlimit:10;}
	.st2{clip-path:url(#SVGID_6_);fill:#42C2DB;stroke:#28AFFF;stroke-miterlimit:10;}
	.st3{clip-path:url(#SVGID_8_);fill:#42C2DB;stroke:#28AFFF;stroke-miterlimit:10;}
	.st4{clip-path:url(#SVGID_10_);fill:#42C2DB;stroke:#28AFFF;stroke-miterlimit:10;}
	.st5{clip-path:url(#SVGID_12_);fill:#42C2DB;stroke:#28AFFF;stroke-miterlimit:10;}
	.st6{clip-path:url(#SVGID_14_);fill:#42C2DB;stroke:#28AFFF;stroke-miterlimit:10;}
	.st7{clip-path:url(#SVGID_16_);fill:#42C2DB;stroke:#28AFFF;stroke-miterlimit:10;}
	.st8{clip-path:url(#SVGID_18_);fill:#42C2DB;stroke:#28AFFF;stroke-miterlimit:10;}
	.st9{clip-path:url(#SVGID_20_);fill:#42C2DB;stroke:#28AFFF;stroke-miterlimit:10;}
	.st10{clip-path:url(#SVGID_22_);fill:#42C2DB;stroke:#28AFFF;stroke-width:1.5;stroke-miterlimit:10;}
	.st11{clip-path:url(#SVGID_24_);fill:#42C2DB;stroke:#28AFFF;stroke-miterlimit:10;}
	.st12{clip-path:url(#SVGID_26_);fill:#42C2DB;stroke:#28AFFF;stroke-miterlimit:10;}
	.st13{clip-path:url(#SVGID_28_);fill:#42C2DB;stroke:#28AFFF;stroke-miterlimit:10;}
	.st14{clip-path:url(#SVGID_30_);fill:#42C2DB;stroke:#28AFFF;stroke-miterlimit:10;}
	.st15{clip-path:url(#SVGID_32_);fill:#42C2DB;stroke:#28AFFF;stroke-miterlimit:10;}
	.st16{clip-path:url(#SVGID_34_);fill:#42C2DB;stroke:#28AFFF;stroke-miterlimit:10;}
	.st17{clip-path:url(#SVGID_36_);fill:#42C2DB;stroke:#28AFFF;stroke-miterlimit:10;}
	.st18{clip-path:url(#SVGID_38_);fill:#42C2DB;stroke:#28AFFF;stroke-miterlimit:10;}
	.st19{clip-path:url(#SVGID_40_);fill:#42C2DB;stroke:#28AFFF;stroke-miterlimit:10;}
	.st20{clip-path:url(#SVGID_42_);fill:#42C2DB;stroke:#28AFFF;stroke-miterlimit:10;}
	.st21{clip-path:url(#SVGID_44_);fill:#42C2DB;stroke:#28AFFF;stroke-miterlimit:10;}
	.st22{clip-path:url(#SVGID_46_);fill:#42C2DB;stroke:#28AFFF;stroke-miterlimit:10;}
	.st23{clip-path:url(#SVGID_48_);fill:#42C2DB;stroke:#28AFFF;stroke-miterlimit:10;}
	.st24{clip-path:url(#SVGID_50_);fill:#42C2DB;stroke:#28AFFF;stroke-miterlimit:10;}
	.st25{clip-path:url(#SVGID_52_);fill:#42C2DB;stroke:#28AFFF;stroke-miterlimit:10;}
	.st26{clip-path:url(#SVGID_54_);fill:#42C2DB;}
	.st27{clip-path:url(#SVGID_56_);fill:#42C2DB;}
	.st28{clip-path:url(#SVGID_58_);fill:#42C2DB;}
	.st29{clip-path:url(#SVGID_60_);fill:#42C2DB;}
	.st30{clip-path:url(#SVGID_62_);fill:#42C2DB;}
	.st31{clip-path:url(#SVGID_64_);fill:#42C2DB;}
	.st32{clip-path:url(#SVGID_66_);fill:#42C2DB;}
	.st33{clip-path:url(#SVGID_68_);fill:#42C2DB;}
	.st34{clip-path:url(#SVGID_70_);fill:#42C2DB;}
	.st35{clip-path:url(#SVGID_72_);fill:#42C2DB;}
	.st36{clip-path:url(#SVGID_74_);fill:#42C2DB;}
	.st37{clip-path:url(#SVGID_76_);fill:#42C2DB;}
	.st38{clip-path:url(#SVGID_78_);fill:#42C2DB;}
	.st39{clip-path:url(#SVGID_80_);fill:#42C2DB;}
	.st40{clip-path:url(#SVGID_82_);fill:#42C2DB;}
	.st41{clip-path:url(#SVGID_84_);fill:#42C2DB;}
	.st42{clip-path:url(#SVGID_86_);}
	.st43{enable-background:new    ;}
	.st44{fill:#42C2DB;}
</style>
<g>
	<g>
		<defs>
			<rect id="SVGID_1_" x="-53.5" y="-75.5" width="1024" height="768"/>
		</defs>
		<clipPath id="SVGID_2_">
			<use xlink:href="#SVGID_1_"  style="overflow:visible;"/>
		</clipPath>
		<path class="st0" d="M58.5,55c0,3.6-2.9,6.5-6.5,6.5s-6.5-2.9-6.5-6.5s2.9-6.5,6.5-6.5S58.5,51.4,58.5,55"/>
	</g>
	<g>
		<defs>
			<rect id="SVGID_3_" x="-53.5" y="-75.5" width="1024" height="768"/>
		</defs>
		<clipPath id="SVGID_4_">
			<use xlink:href="#SVGID_3_"  style="overflow:visible;"/>
		</clipPath>
		<path class="st1" d="M86.5,61.5c0,4.4-3.6,8-8,8s-8-3.6-8-8s3.6-8,8-8S86.5,57.1,86.5,61.5"/>
	</g>
	<g>
		<defs>
			<rect id="SVGID_5_" x="-53.5" y="-75.5" width="1024" height="768"/>
		</defs>
		<clipPath id="SVGID_6_">
			<use xlink:href="#SVGID_5_"  style="overflow:visible;"/>
		</clipPath>
		<path class="st2" d="M68.5,79.5c0,3.3-2.7,6-6,6c-3.3,0-6-2.7-6-6s2.7-6,6-6C65.8,73.5,68.5,76.2,68.5,79.5"/>
	</g>
	<g>
		<defs>
			<rect id="SVGID_7_" x="-53.5" y="-75.5" width="1024" height="768"/>
		</defs>
		<clipPath id="SVGID_8_">
			<use xlink:href="#SVGID_7_"  style="overflow:visible;"/>
		</clipPath>
		<path class="st3" d="M45.5,78c0,3.6-2.9,6.5-6.5,6.5s-6.5-2.9-6.5-6.5s2.9-6.5,6.5-6.5S45.5,74.4,45.5,78"/>
	</g>
	<g>
		<defs>
			<rect id="SVGID_9_" x="-53.5" y="-75.5" width="1024" height="768"/>
		</defs>
		<clipPath id="SVGID_10_">
			<use xlink:href="#SVGID_9_"  style="overflow:visible;"/>
		</clipPath>
		<path class="st4" d="M39.5,103.5c0,2.8-2.2,5-5,5s-5-2.2-5-5s2.2-5,5-5S39.5,100.7,39.5,103.5"/>
	</g>
	<g>
		<defs>
			<rect id="SVGID_11_" x="-53.5" y="-75.5" width="1024" height="768"/>
		</defs>
		<clipPath id="SVGID_12_">
			<use xlink:href="#SVGID_11_"  style="overflow:visible;"/>
		</clipPath>
		<path class="st5" d="M45.5,129c0,3.6-2.9,6.5-6.5,6.5s-6.5-2.9-6.5-6.5c0-3.6,2.9-6.5,6.5-6.5S45.5,125.4,45.5,129"/>
	</g>
	<g>
		<defs>
			<rect id="SVGID_13_" x="-53.5" y="-75.5" width="1024" height="768"/>
		</defs>
		<clipPath id="SVGID_14_">
			<use xlink:href="#SVGID_13_"  style="overflow:visible;"/>
		</clipPath>
		<path class="st6" d="M67.5,127c0,3-2.5,5.5-5.5,5.5s-5.5-2.5-5.5-5.5s2.5-5.5,5.5-5.5S67.5,124,67.5,127"/>
	</g>
	<g>
		<defs>
			<rect id="SVGID_15_" x="-53.5" y="-75.5" width="1024" height="768"/>
		</defs>
		<clipPath id="SVGID_16_">
			<use xlink:href="#SVGID_15_"  style="overflow:visible;"/>
		</clipPath>
		<path class="st7" d="M56.5,152c0,2.5-2,4.5-4.5,4.5s-4.5-2-4.5-4.5s2-4.5,4.5-4.5S56.5,149.5,56.5,152"/>
	</g>
	<g>
		<defs>
			<rect id="SVGID_17_" x="-53.5" y="-75.5" width="1024" height="768"/>
		</defs>
		<clipPath id="SVGID_18_">
			<use xlink:href="#SVGID_17_"  style="overflow:visible;"/>
		</clipPath>
		<path class="st8" d="M85.5,146c0,3.6-2.9,6.5-6.5,6.5s-6.5-2.9-6.5-6.5s2.9-6.5,6.5-6.5S85.5,142.4,85.5,146"/>
	</g>
	<g>
		<defs>
			<rect id="SVGID_19_" x="-53.5" y="-75.5" width="1024" height="768"/>
		</defs>
		<clipPath id="SVGID_20_">
			<use xlink:href="#SVGID_19_"  style="overflow:visible;"/>
		</clipPath>
		<path class="st9" d="M107.5,154.5c0,3.9-3.1,7-7,7s-7-3.1-7-7s3.1-7,7-7S107.5,150.6,107.5,154.5"/>
	</g>
	<g>
		<defs>
			<rect id="SVGID_21_" x="-53.5" y="-75.5" width="1024" height="768"/>
		</defs>
		<clipPath id="SVGID_22_">
			<use xlink:href="#SVGID_21_"  style="overflow:visible;"/>
		</clipPath>
		<path class="st10" d="M135.5,153.5c0,5.5-4.5,10-10,10s-10-4.5-10-10s4.5-10,10-10S135.5,148,135.5,153.5"/>
	</g>
	<g>
		<defs>
			<rect id="SVGID_23_" x="-53.5" y="-75.5" width="1024" height="768"/>
		</defs>
		<clipPath id="SVGID_24_">
			<use xlink:href="#SVGID_23_"  style="overflow:visible;"/>
		</clipPath>
		<path class="st11" d="M151.5,140c0,2.5-2,4.5-4.5,4.5s-4.5-2-4.5-4.5s2-4.5,4.5-4.5S151.5,137.5,151.5,140"/>
	</g>
	<g>
		<defs>
			<rect id="SVGID_25_" x="-53.5" y="-75.5" width="1024" height="768"/>
		</defs>
		<clipPath id="SVGID_26_">
			<use xlink:href="#SVGID_25_"  style="overflow:visible;"/>
		</clipPath>
		<path class="st12" d="M176.5,158c0,3.6-2.9,6.5-6.5,6.5s-6.5-2.9-6.5-6.5s2.9-6.5,6.5-6.5S176.5,154.4,176.5,158"/>
	</g>
	<g>
		<defs>
			<rect id="SVGID_27_" x="-53.5" y="-75.5" width="1024" height="768"/>
		</defs>
		<clipPath id="SVGID_28_">
			<use xlink:href="#SVGID_27_"  style="overflow:visible;"/>
		</clipPath>
		<path class="st13" d="M153.5,173c0,3.6-2.9,6.5-6.5,6.5s-6.5-2.9-6.5-6.5s2.9-6.5,6.5-6.5S153.5,169.4,153.5,173"/>
	</g>
	<g>
		<defs>
			<rect id="SVGID_29_" x="-53.5" y="-75.5" width="1024" height="768"/>
		</defs>
		<clipPath id="SVGID_30_">
			<use xlink:href="#SVGID_29_"  style="overflow:visible;"/>
		</clipPath>
		<path class="st14" d="M129.5,181c0,4.1-3.4,7.5-7.5,7.5s-7.5-3.4-7.5-7.5s3.4-7.5,7.5-7.5S129.5,176.9,129.5,181"/>
	</g>
	<g>
		<defs>
			<rect id="SVGID_31_" x="-53.5" y="-75.5" width="1024" height="768"/>
		</defs>
		<clipPath id="SVGID_32_">
			<use xlink:href="#SVGID_31_"  style="overflow:visible;"/>
		</clipPath>
		<path class="st15" d="M101.5,179c0,3-2.5,5.5-5.5,5.5s-5.5-2.5-5.5-5.5s2.5-5.5,5.5-5.5S101.5,176,101.5,179"/>
	</g>
	<g>
		<defs>
			<rect id="SVGID_33_" x="-53.5" y="-75.5" width="1024" height="768"/>
		</defs>
		<clipPath id="SVGID_34_">
			<use xlink:href="#SVGID_33_"  style="overflow:visible;"/>
		</clipPath>
		<path class="st16" d="M103.5,27c0,4.1-3.4,7.5-7.5,7.5s-7.5-3.4-7.5-7.5s3.4-7.5,7.5-7.5S103.5,22.9,103.5,27"/>
	</g>
	<g>
		<defs>
			<rect id="SVGID_35_" x="-53.5" y="-75.5" width="1024" height="768"/>
		</defs>
		<clipPath id="SVGID_36_">
			<use xlink:href="#SVGID_35_"  style="overflow:visible;"/>
		</clipPath>
		<path class="st17" d="M128.5,26c0,3.6-2.9,6.5-6.5,6.5s-6.5-2.9-6.5-6.5s2.9-6.5,6.5-6.5S128.5,22.4,128.5,26"/>
	</g>
	<g>
		<defs>
			<rect id="SVGID_37_" x="-53.5" y="-75.5" width="1024" height="768"/>
		</defs>
		<clipPath id="SVGID_38_">
			<use xlink:href="#SVGID_37_"  style="overflow:visible;"/>
		</clipPath>
		<path class="st18" d="M106.5,51c0,3-2.5,5.5-5.5,5.5S95.5,54,95.5,51s2.5-5.5,5.5-5.5S106.5,48,106.5,51"/>
	</g>
	<g>
		<defs>
			<rect id="SVGID_39_" x="-53.5" y="-75.5" width="1024" height="768"/>
		</defs>
		<clipPath id="SVGID_40_">
			<use xlink:href="#SVGID_39_"  style="overflow:visible;"/>
		</clipPath>
		<path class="st19" d="M132.5,53c0,3.6-2.9,6.5-6.5,6.5c-3.6,0-6.5-2.9-6.5-6.5s2.9-6.5,6.5-6.5C129.6,46.5,132.5,49.4,132.5,53"/>
	</g>
	<g>
		<defs>
			<rect id="SVGID_41_" x="-53.5" y="-75.5" width="1024" height="768"/>
		</defs>
		<clipPath id="SVGID_42_">
			<use xlink:href="#SVGID_41_"  style="overflow:visible;"/>
		</clipPath>
		<path class="st20" d="M151.5,66c0,2.5-2,4.5-4.5,4.5s-4.5-2-4.5-4.5s2-4.5,4.5-4.5S151.5,63.5,151.5,66"/>
	</g>
	<g>
		<defs>
			<rect id="SVGID_43_" x="-53.5" y="-75.5" width="1024" height="768"/>
		</defs>
		<clipPath id="SVGID_44_">
			<use xlink:href="#SVGID_43_"  style="overflow:visible;"/>
		</clipPath>
		<path class="st21" d="M175.5,48c0,3.6-2.9,6.5-6.5,6.5s-6.5-2.9-6.5-6.5s2.9-6.5,6.5-6.5S175.5,44.4,175.5,48"/>
	</g>
	<g>
		<defs>
			<rect id="SVGID_45_" x="-53.5" y="-75.5" width="1024" height="768"/>
		</defs>
		<clipPath id="SVGID_46_">
			<use xlink:href="#SVGID_45_"  style="overflow:visible;"/>
		</clipPath>
		<path class="st22" d="M147.5,24.5c-4.4,0-8,3.6-8,8s3.6,8,8,8s8-3.6,8-8S151.9,24.5,147.5,24.5 M147.5,36.5c-2.2,0-4-1.8-4-4
			s1.8-4,4-4s4,1.8,4,4S149.7,36.5,147.5,36.5"/>
	</g>
	<g>
		<defs>
			<rect id="SVGID_47_" x="-53.5" y="-75.5" width="1024" height="768"/>
		</defs>
		<clipPath id="SVGID_48_">
			<use xlink:href="#SVGID_47_"  style="overflow:visible;"/>
		</clipPath>
		<path class="st23" d="M56.5,95.5c-4.4,0-8,3.6-8,8s3.6,8,8,8s8-3.6,8-8S60.9,95.5,56.5,95.5 M56.5,107.5c-2.2,0-4-1.8-4-4
			s1.8-4,4-4s4,1.8,4,4S58.7,107.5,56.5,107.5"/>
	</g>
	<g>
		<defs>
			<rect id="SVGID_49_" x="-53.5" y="-75.5" width="1024" height="768"/>
		</defs>
		<clipPath id="SVGID_50_">
			<use xlink:href="#SVGID_49_"  style="overflow:visible;"/>
		</clipPath>
		<path class="st24" d="M71.5,162.5c-3.9,0-7,3.1-7,7s3.1,7,7,7s7-3.1,7-7S75.4,162.5,71.5,162.5 M71.5,173c-1.9,0-3.5-1.6-3.5-3.5
			s1.6-3.5,3.5-3.5s3.5,1.6,3.5,3.5S73.4,173,71.5,173"/>
	</g>
	<g>
		<defs>
			<rect id="SVGID_51_" x="-53.5" y="-75.5" width="1024" height="768"/>
		</defs>
		<clipPath id="SVGID_52_">
			<use xlink:href="#SVGID_51_"  style="overflow:visible;"/>
		</clipPath>
		<path class="st25" d="M71,31.5c-3,0-5.5,2.5-5.5,5.5s2.5,5.5,5.5,5.5s5.5-2.5,5.5-5.5S74,31.5,71,31.5 M71,39.8
			c-1.5,0-2.8-1.2-2.8-2.8c0-1.5,1.2-2.8,2.8-2.8c1.5,0,2.8,1.2,2.8,2.8C73.8,38.5,72.5,39.8,71,39.8"/>
	</g>
	<g>
		<defs>
			
				<rect id="SVGID_53_" x="-1.7" y="-342.9" transform="matrix(0.8289 -0.5595 0.5595 0.8289 64.3436 292.5763)" width="1024.1" height="768"/>
		</defs>
		<clipPath id="SVGID_54_">
			<use xlink:href="#SVGID_53_"  style="overflow:visible;"/>
		</clipPath>
		
			<rect x="46.9" y="81.9" transform="matrix(0.8289 -0.5595 0.5595 0.8289 -42.2923 41.9502)" class="st26" width="1" height="16.4"/>
	</g>
	<g>
		<defs>
			
				<rect id="SVGID_55_" x="40.3" y="-374.1" transform="matrix(0.719 -0.695 0.695 0.719 148.2952 386.6388)" width="1024" height="768"/>
		</defs>
		<clipPath id="SVGID_56_">
			<use xlink:href="#SVGID_55_"  style="overflow:visible;"/>
		</clipPath>
		<rect x="128.5" y="42.7" transform="matrix(0.719 -0.695 0.695 0.719 8.1925 106.7473)" class="st27" width="15.2" height="1"/>
	</g>
	<g>
		<defs>
			
				<rect id="SVGID_57_" x="22" y="-221.1" transform="matrix(0.9267 -0.3759 0.3759 0.9267 -22.0728 212.6732)" width="1024" height="768"/>
		</defs>
		<clipPath id="SVGID_58_">
			<use xlink:href="#SVGID_57_"  style="overflow:visible;"/>
		</clipPath>
		
			<rect x="104.8" y="41.7" transform="matrix(0.9267 -0.3759 0.3759 0.9267 -6.8364 49.3634)" class="st28" width="36.6" height="1"/>
	</g>
	<g>
		<defs>
			
				<rect id="SVGID_59_" x="39.6" y="-427.2" transform="matrix(0.5903 -0.8072 0.8072 0.5903 260.8071 427.5381)" width="1024" height="768"/>
		</defs>
		<clipPath id="SVGID_60_">
			<use xlink:href="#SVGID_59_"  style="overflow:visible;"/>
		</clipPath>
		<rect x="158.1" y="35" transform="matrix(0.5903 -0.8072 0.8072 0.5903 31.8652 144.8341)" class="st29" width="1" height="12"/>
	</g>
	<g>
		<defs>
			<rect id="SVGID_61_" x="-53.5" y="-75.5" width="1024" height="768"/>
		</defs>
		<clipPath id="SVGID_62_">
			<use xlink:href="#SVGID_61_"  style="overflow:visible;"/>
		</clipPath>
		<rect x="103.4" y="25.5" class="st30" width="12.1" height="1"/>
	</g>
	<g>
		<defs>
			
				<rect id="SVGID_63_" x="-19.1" y="-548.1" transform="matrix(0.4599 -0.888 0.888 0.4599 411.9167 349.0439)" width="1024" height="768"/>
		</defs>
		<clipPath id="SVGID_64_">
			<use xlink:href="#SVGID_63_"  style="overflow:visible;"/>
		</clipPath>
		<rect x="75.6" y="43.5" transform="matrix(0.4599 -0.888 0.888 0.4599 8.0653 101.2293)" class="st31" width="23.2" height="1"/>
	</g>
	<g>
		<defs>
			
				<rect id="SVGID_65_" x="2.9" y="-189.8" transform="matrix(0.9623 -0.2719 0.2719 0.9623 -33.4075 147.3158)" width="1024" height="768"/>
		</defs>
		<clipPath id="SVGID_66_">
			<use xlink:href="#SVGID_65_"  style="overflow:visible;"/>
		</clipPath>
		<rect x="73.8" y="42" transform="matrix(0.9623 -0.2719 0.2719 0.9623 -10.2111 22.0031)" class="st32" width="1" height="11.7"/>
	</g>
	<g>
		<defs>
			
				<rect id="SVGID_67_" x="-4.6" y="-439.3" transform="matrix(0.6754 -0.7375 0.7375 0.6754 205.5098 356.2129)" width="1024" height="768"/>
		</defs>
		<clipPath id="SVGID_68_">
			<use xlink:href="#SVGID_67_"  style="overflow:visible;"/>
		</clipPath>
		
			<rect x="64.6" y="70.6" transform="matrix(0.6754 -0.7375 0.7375 0.6754 -29.8259 74.4564)" class="st33" width="10.1" height="1"/>
	</g>
	<g>
		<defs>
			
				<rect id="SVGID_69_" x="-68" y="-486.7" transform="matrix(0.5879 -0.8089 0.8089 0.5879 266.066 316.8544)" width="1024" height="768"/>
		</defs>
		<clipPath id="SVGID_70_">
			<use xlink:href="#SVGID_69_"  style="overflow:visible;"/>
		</clipPath>
		
			<rect x="39.4" y="116.6" transform="matrix(0.5879 -0.8089 0.8089 0.5879 -75.0797 86.8095)" class="st34" width="16.5" height="1"/>
	</g>
	<g>
		<defs>
			
				<rect id="SVGID_71_" x="-19.1" y="-176.7" transform="matrix(0.9709 -0.2397 0.2397 0.9709 -35.3261 124.1995)" width="1024.1" height="768"/>
		</defs>
		<clipPath id="SVGID_72_">
			<use xlink:href="#SVGID_71_"  style="overflow:visible;"/>
		</clipPath>
		
			<rect x="59.3" y="111.1" transform="matrix(0.9709 -0.2397 0.2397 0.9709 -26.1546 17.7292)" class="st35" width="1" height="10.6"/>
	</g>
	<g>
		<defs>
			
				<rect id="SVGID_73_" x="-33.4" y="-138.9" transform="matrix(0.9878 -0.156 0.156 0.9878 -32.3757 77.6617)" width="1024" height="768"/>
		</defs>
		<clipPath id="SVGID_74_">
			<use xlink:href="#SVGID_73_"  style="overflow:visible;"/>
		</clipPath>
		
			<rect x="56.4" y="148.3" transform="matrix(0.9878 -0.156 0.156 0.9878 -22.4213 11.9003)" class="st36" width="16.4" height="1"/>
	</g>
	<g>
		<defs>
			
				<rect id="SVGID_75_" x="-65.8" y="-402.7" transform="matrix(0.7025 -0.7117 0.7117 0.7025 146.0294 311.9687)" width="1024" height="768"/>
		</defs>
		<clipPath id="SVGID_76_">
			<use xlink:href="#SVGID_75_"  style="overflow:visible;"/>
		</clipPath>
		
			<rect x="60.5" y="152.3" transform="matrix(0.7025 -0.7117 0.7117 0.7025 -95.4979 90.9306)" class="st37" width="1" height="14.8"/>
	</g>
	<g>
		<defs>
			
				<rect id="SVGID_77_" x="-29.1" y="-270.2" transform="matrix(0.8788 -0.4772 0.4772 0.8788 4.2183 244.2578)" width="1024" height="768"/>
		</defs>
		<clipPath id="SVGID_78_">
			<use xlink:href="#SVGID_77_"  style="overflow:visible;"/>
		</clipPath>
		
			<rect x="87" y="150.5" transform="matrix(0.8788 -0.4772 0.4772 0.8788 -67.1986 61.5186)" class="st38" width="1" height="25.1"/>
	</g>
	<g>
		<defs>
			<rect id="SVGID_79_" x="-53.5" y="-75.5" width="1024" height="768"/>
		</defs>
		<clipPath id="SVGID_80_">
			<use xlink:href="#SVGID_79_"  style="overflow:visible;"/>
		</clipPath>
		<rect x="107.5" y="154" class="st39" width="8" height="1"/>
	</g>
	<g>
		<defs>
			
				<rect id="SVGID_81_" x="-200.8" y="-526.2" transform="matrix(0.146 -0.9893 0.9893 0.146 406.3912 186.4704)" width="1024" height="768"/>
		</defs>
		<clipPath id="SVGID_82_">
			<use xlink:href="#SVGID_81_"  style="overflow:visible;"/>
		</clipPath>
		
			<rect x="118.8" y="168" transform="matrix(0.146 -0.9893 0.9893 0.146 -60.9162 266.3952)" class="st40" width="10.1" height="1"/>
	</g>
	<g>
		<defs>
			
				<rect id="SVGID_83_" x="-173.1" y="-515.5" transform="matrix(0.124 -0.9923 0.9923 0.124 427.3555 221.0819)" width="1024" height="768"/>
		</defs>
		<clipPath id="SVGID_84_">
			<use xlink:href="#SVGID_83_"  style="overflow:visible;"/>
		</clipPath>
		
			<rect x="148.9" y="142.1" transform="matrix(0.124 -0.9923 0.9923 0.124 -24.1122 285.1575)" class="st41" width="1" height="28.2"/>
	</g>
	<g>
		<defs>
			<rect id="SVGID_85_" x="-53.5" y="-75.5" width="1024" height="768"/>
		</defs>
		<clipPath id="SVGID_86_">
			<use xlink:href="#SVGID_85_"  style="overflow:visible;"/>
		</clipPath>
		<g class="st42">
			<g class="st43">
				<path class="st44" d="M120,99.4c0,1.7-0.7,3.1-2.1,4.3s-3.1,1.8-5.1,1.8h-2.1v16.9h1.5v1.1h-7.8v-1.1h1.5V82.6h-1.5v-1.1h8.4
					c2,0,3.7,0.6,5.1,1.8s2.1,2.6,2.1,4.3V99.4z M115.2,102V85c0-0.7-0.2-1.2-0.7-1.7s-1-0.7-1.7-0.7h-2.1v21.9h2.1
					c0.7,0,1.2-0.2,1.7-0.7S115.2,102.7,115.2,102z"/>
				<path class="st44" d="M129.5,123.5h-7.7v-1.1h1.5V82.6h-1.5v-1.1h6.2v40.9h1.5V123.5z"/>
				<path class="st44" d="M146,123.5h-6.2v-0.8c-0.9,0.8-2,1.1-3.4,1.1c-3.3,0-5-1.8-5-5.5v-6.9c0-3.9,2.3-5.8,6.9-5.8h1.4V95.5
					c0-1.6-0.6-2.4-1.8-2.4c-1.2,0-1.7,0.8-1.7,2.4v6.4h-4.7v-3.7c0-1.9,0.6-3.3,1.7-4.5c1.2-1.1,2.7-1.7,4.7-1.7
					c2,0,3.5,0.6,4.7,1.7c1.2,1.1,1.7,2.6,1.7,4.5v24.3h1.5V123.5z M139.9,121.6v-14.9h-1.4c-1.5,0-2.3,0.8-2.3,2.4v11.3
					c0,1.5,0.5,2.3,1.6,2.3C138.5,122.6,139.2,122.3,139.9,121.6z"/>
				<path class="st44" d="M163.2,123.5H157v-28c0-1.5-0.6-2.3-1.8-2.3c-0.8,0-1.5,0.3-2.2,1v28.2h1.5v1.1h-7.7v-1.1h1.5v-29h-1.5
					v-1.1h6.2v0.8c0.9-0.8,2-1.1,3.5-1.1c3.4,0,5.1,1.8,5.1,5.5v24.9h1.5V123.5z"/>
				<path class="st44" d="M188.7,117.7c0,1.7-0.7,3.1-2.1,4.3s-3.1,1.8-5.1,1.8c-2,0-3.7-0.6-5.1-1.8c-1.4-1.2-2.1-2.6-2.1-4.3V87.3
					c0-1.7,0.7-3.1,2.1-4.3c1.4-1.2,3.1-1.8,5.1-1.8c2,0,3.7,0.6,5.1,1.8s2.1,2.6,2.1,4.3v6.8h-4.8v-9.4c0-0.7-0.2-1.2-0.7-1.7
					s-1-0.7-1.7-0.7c-0.7,0-1.2,0.2-1.7,0.7s-0.7,1-0.7,1.7v35.6c0,0.7,0.2,1.2,0.7,1.7s1,0.7,1.7,0.7c0.7,0,1.2-0.2,1.7-0.7
					s0.7-1,0.7-1.7v-9.4h4.8V117.7z"/>
				<path class="st44" d="M206.3,123.5h-6.2v-0.8c-0.9,0.8-2,1.1-3.4,1.1c-3.3,0-5-1.8-5-5.5v-6.9c0-3.9,2.3-5.8,6.9-5.8h1.4V95.5
					c0-1.6-0.6-2.4-1.8-2.4c-1.2,0-1.7,0.8-1.7,2.4v6.4H192v-3.7c0-1.9,0.6-3.3,1.7-4.5c1.2-1.1,2.7-1.7,4.7-1.7
					c2,0,3.5,0.6,4.7,1.7c1.2,1.1,1.7,2.6,1.7,4.5v24.3h1.5V123.5z M200.2,121.6v-14.9h-1.4c-1.5,0-2.3,0.8-2.3,2.4v11.3
					c0,1.5,0.5,2.3,1.6,2.3C198.8,122.6,199.5,122.3,200.2,121.6z"/>
				<path class="st44" d="M223.2,123.5H217v-0.8c-0.9,0.8-2,1.1-3.5,1.1c-3.4,0-5.1-1.8-5.1-5.5V93.4h-1.5v-1.1h6.2v28
					c0,1.5,0.6,2.3,1.8,2.3c0.7,0,1.5-0.3,2.1-1V93.4h-1.5v-1.1h6.2v30.1h1.5V123.5z"/>
				<path class="st44" d="M238,117.7c0,1.7-0.6,3.2-1.7,4.3c-1.2,1.2-2.8,1.8-4.7,1.8s-3.5-0.6-4.7-1.8s-1.8-2.6-1.8-4.4v-3.7h4.7
					v6.4c0,1.6,0.6,2.4,1.9,2.4c1.2,0,1.8-0.8,1.8-2.4v-4.6c0-1.9-0.5-3.4-1.6-4.5l-4.9-4.9c-1.2-1.2-1.8-3-1.8-5.3v-2.9
					c0-1.7,0.6-3.2,1.8-4.4c1.2-1.2,2.8-1.8,4.7-1.8s3.5,0.6,4.7,1.8c1.2,1.2,1.8,2.6,1.8,4.4v3.7h-4.7v-6.4c0-1.6-0.6-2.4-1.8-2.4
					c-1.2,0-1.8,0.8-1.8,2.4v4.1c0,1.9,0.5,3.4,1.6,4.5l4.9,4.9c1.2,1.2,1.8,3,1.8,5.4V117.7z"/>
				<path class="st44" d="M255.1,123.5h-6.2v-0.8c-0.9,0.8-2,1.1-3.4,1.1c-3.3,0-5-1.8-5-5.5v-6.9c0-3.9,2.3-5.8,6.9-5.8h1.4V95.5
					c0-1.6-0.6-2.4-1.8-2.4c-1.2,0-1.7,0.8-1.7,2.4v6.4h-4.7v-3.7c0-1.9,0.6-3.3,1.7-4.5c1.2-1.1,2.7-1.7,4.7-1.7
					c2,0,3.5,0.6,4.7,1.7c1.2,1.1,1.7,2.6,1.7,4.5v24.3h1.5V123.5z M248.9,121.6v-14.9h-1.4c-1.5,0-2.3,0.8-2.3,2.4v11.3
					c0,1.5,0.5,2.3,1.6,2.3C247.6,122.6,248.2,122.3,248.9,121.6z"/>
				<path class="st44" d="M263.8,123.5h-7.7v-1.1h1.5V82.6h-1.5v-1.1h6.2v40.9h1.5V123.5z"/>
				<path class="st44" d="M289,123.5h-14.7v-1.1h1.5V82.6h-1.5v-1.1h7.8v1.1h-1.5v39.8h3.6v-11.5h4.8V123.5z"/>
				<path class="st44" d="M305.7,123.5h-6.2v-0.8c-0.9,0.8-2,1.1-3.4,1.1c-3.3,0-5-1.8-5-5.5v-6.9c0-3.9,2.3-5.8,6.9-5.8h1.4V95.5
					c0-1.6-0.6-2.4-1.8-2.4c-1.2,0-1.7,0.8-1.7,2.4v6.4h-4.7v-3.7c0-1.9,0.6-3.3,1.7-4.5c1.2-1.1,2.7-1.7,4.7-1.7
					c2,0,3.5,0.6,4.7,1.7s1.7,2.6,1.7,4.5v24.3h1.5V123.5z M299.6,121.6v-14.9h-1.4c-1.5,0-2.3,0.8-2.3,2.4v11.3
					c0,1.5,0.5,2.3,1.6,2.3C298.2,122.6,298.9,122.3,299.6,121.6z"/>
				<path class="st44" d="M321.3,118.3c0,3.7-1.7,5.5-5.1,5.5c-1.4,0-2.6-0.4-3.5-1.1v0.8h-6.2v-1.1h1.5V82.6h-1.5v-1.1h6.2v11.7
					c0.9-0.8,2-1.1,3.5-1.1c3.4,0,5.1,1.8,5.1,5.5V118.3z M316.6,120.3V95.5c0-1.5-0.6-2.3-1.7-2.3c-0.8,0-1.5,0.3-2.2,1v27.3
					c0.7,0.7,1.4,1,2.2,1C316,122.6,316.6,121.8,316.6,120.3z"/>
			</g>
		</g>
	</g>
</g>
</svg>
