<?xml version="1.0" encoding="utf-8"?>
<!-- Generator: Adobe Illustrator 22.1.0, SVG Export Plug-In . SVG Version: 6.00 Build 0)  -->
<svg version="1.1" id="图层_1" xmlns="http://www.w3.org/2000/svg" xmlns:xlink="http://www.w3.org/1999/xlink" x="0px" y="0px"
	 viewBox="0 0 380 210" style="enable-background:new 0 0 380 210;" xml:space="preserve">
<style type="text/css">
	.st0{clip-path:url(#SVGID_2_);fill:#42C2DB;stroke:#28AFFF;stroke-miterlimit:10;}
	.st1{clip-path:url(#SVGID_2_);fill:#42C2DB;stroke:#28AFFF;stroke-width:1.5;stroke-miterlimit:10;}
	.st2{clip-path:url(#SVGID_2_);fill:#42C2DB;}
	.st3{clip-path:url(#SVGID_2_);}
	.st4{fill:#42C2DB;}
	.st5{font-family:'NiagaraSolid-Reg';}
	.st6{font-size:60px;}
</style>
<g>
	<defs>
		<rect id="SVGID_1_" x="-53.5" y="-75.5" width="1024" height="768"/>
	</defs>
	<clipPath id="SVGID_2_">
		<use xlink:href="#SVGID_1_"  style="overflow:visible;"/>
	</clipPath>
	<path class="st0" d="M58.5,55c0,3.6-2.9,6.5-6.5,6.5c-3.6,0-6.5-2.9-6.5-6.5c0-3.6,2.9-6.5,6.5-6.5C55.6,48.5,58.5,51.4,58.5,55"/>
	<path class="st0" d="M86.5,61.5c0,4.4-3.6,8-8,8c-4.4,0-8-3.6-8-8c0-4.4,3.6-8,8-8C82.9,53.5,86.5,57.1,86.5,61.5"/>
	<path class="st0" d="M68.5,79.5c0,3.3-2.7,6-6,6c-3.3,0-6-2.7-6-6c0-3.3,2.7-6,6-6C65.8,73.5,68.5,76.2,68.5,79.5"/>
	<path class="st0" d="M45.5,78c0,3.6-2.9,6.5-6.5,6.5c-3.6,0-6.5-2.9-6.5-6.5c0-3.6,2.9-6.5,6.5-6.5C42.6,71.5,45.5,74.4,45.5,78"/>
	<path class="st0" d="M39.5,103.5c0,2.8-2.2,5-5,5c-2.8,0-5-2.2-5-5c0-2.8,2.2-5,5-5C37.3,98.5,39.5,100.7,39.5,103.5"/>
	<path class="st0" d="M45.5,129c0,3.6-2.9,6.5-6.5,6.5c-3.6,0-6.5-2.9-6.5-6.5c0-3.6,2.9-6.5,6.5-6.5
		C42.6,122.5,45.5,125.4,45.5,129"/>
	<path class="st0" d="M67.5,127c0,3-2.5,5.5-5.5,5.5c-3,0-5.5-2.5-5.5-5.5c0-3,2.5-5.5,5.5-5.5C65,121.5,67.5,124,67.5,127"/>
	<path class="st0" d="M56.5,152c0,2.5-2,4.5-4.5,4.5c-2.5,0-4.5-2-4.5-4.5c0-2.5,2-4.5,4.5-4.5C54.5,147.5,56.5,149.5,56.5,152"/>
	<path class="st0" d="M85.5,146c0,3.6-2.9,6.5-6.5,6.5c-3.6,0-6.5-2.9-6.5-6.5c0-3.6,2.9-6.5,6.5-6.5
		C82.6,139.5,85.5,142.4,85.5,146"/>
	<path class="st0" d="M107.5,154.5c0,3.9-3.1,7-7,7c-3.9,0-7-3.1-7-7c0-3.9,3.1-7,7-7C104.4,147.5,107.5,150.6,107.5,154.5"/>
	<path class="st1" d="M135.5,153.5c0,5.5-4.5,10-10,10c-5.5,0-10-4.5-10-10c0-5.5,4.5-10,10-10C131,143.5,135.5,148,135.5,153.5"/>
	<path class="st0" d="M151.5,140c0,2.5-2,4.5-4.5,4.5c-2.5,0-4.5-2-4.5-4.5c0-2.5,2-4.5,4.5-4.5C149.5,135.5,151.5,137.5,151.5,140"
		/>
	<path class="st0" d="M176.5,158c0,3.6-2.9,6.5-6.5,6.5c-3.6,0-6.5-2.9-6.5-6.5c0-3.6,2.9-6.5,6.5-6.5
		C173.6,151.5,176.5,154.4,176.5,158"/>
	<path class="st0" d="M153.5,173c0,3.6-2.9,6.5-6.5,6.5c-3.6,0-6.5-2.9-6.5-6.5c0-3.6,2.9-6.5,6.5-6.5
		C150.6,166.5,153.5,169.4,153.5,173"/>
	<path class="st0" d="M129.5,181c0,4.1-3.4,7.5-7.5,7.5c-4.1,0-7.5-3.4-7.5-7.5c0-4.1,3.4-7.5,7.5-7.5
		C126.1,173.5,129.5,176.9,129.5,181"/>
	<path class="st0" d="M101.5,179c0,3-2.5,5.5-5.5,5.5c-3,0-5.5-2.5-5.5-5.5c0-3,2.5-5.5,5.5-5.5C99,173.5,101.5,176,101.5,179"/>
	<path class="st0" d="M103.5,27c0,4.1-3.4,7.5-7.5,7.5c-4.1,0-7.5-3.4-7.5-7.5c0-4.1,3.4-7.5,7.5-7.5
		C100.1,19.5,103.5,22.9,103.5,27"/>
	<path class="st0" d="M128.5,26c0,3.6-2.9,6.5-6.5,6.5c-3.6,0-6.5-2.9-6.5-6.5c0-3.6,2.9-6.5,6.5-6.5
		C125.6,19.5,128.5,22.4,128.5,26"/>
	<path class="st0" d="M106.5,51c0,3-2.5,5.5-5.5,5.5c-3,0-5.5-2.5-5.5-5.5c0-3,2.5-5.5,5.5-5.5C104,45.5,106.5,48,106.5,51"/>
	<path class="st0" d="M132.5,53c0,3.6-2.9,6.5-6.5,6.5c-3.6,0-6.5-2.9-6.5-6.5c0-3.6,2.9-6.5,6.5-6.5
		C129.6,46.5,132.5,49.4,132.5,53"/>
	<path class="st0" d="M151.5,66c0,2.5-2,4.5-4.5,4.5c-2.5,0-4.5-2-4.5-4.5c0-2.5,2-4.5,4.5-4.5C149.5,61.5,151.5,63.5,151.5,66"/>
	<path class="st0" d="M175.5,48c0,3.6-2.9,6.5-6.5,6.5c-3.6,0-6.5-2.9-6.5-6.5c0-3.6,2.9-6.5,6.5-6.5
		C172.6,41.5,175.5,44.4,175.5,48"/>
	<path class="st0" d="M147.5,24.5c-4.4,0-8,3.6-8,8c0,4.4,3.6,8,8,8c4.4,0,8-3.6,8-8C155.5,28.1,151.9,24.5,147.5,24.5 M147.5,36.5
		c-2.2,0-4-1.8-4-4c0-2.2,1.8-4,4-4c2.2,0,4,1.8,4,4C151.5,34.7,149.7,36.5,147.5,36.5"/>
	<path class="st0" d="M56.5,95.5c-4.4,0-8,3.6-8,8c0,4.4,3.6,8,8,8c4.4,0,8-3.6,8-8C64.5,99.1,60.9,95.5,56.5,95.5 M56.5,107.5
		c-2.2,0-4-1.8-4-4c0-2.2,1.8-4,4-4c2.2,0,4,1.8,4,4C60.5,105.7,58.7,107.5,56.5,107.5"/>
	<path class="st0" d="M71.5,162.5c-3.9,0-7,3.1-7,7c0,3.9,3.1,7,7,7c3.9,0,7-3.1,7-7C78.5,165.6,75.4,162.5,71.5,162.5 M71.5,173
		c-1.9,0-3.5-1.6-3.5-3.5c0-1.9,1.6-3.5,3.5-3.5c1.9,0,3.5,1.6,3.5,3.5C75,171.4,73.4,173,71.5,173"/>
	<path class="st0" d="M71,31.5c-3,0-5.5,2.5-5.5,5.5c0,3,2.5,5.5,5.5,5.5c3,0,5.5-2.5,5.5-5.5C76.5,34,74,31.5,71,31.5 M71,39.8
		c-1.5,0-2.8-1.2-2.8-2.8c0-1.5,1.2-2.8,2.8-2.8c1.5,0,2.8,1.2,2.8,2.8C73.8,38.5,72.5,39.8,71,39.8"/>
	<rect x="46.9" y="81.9" transform="matrix(0.8289 -0.5595 0.5595 0.8289 -42.2812 41.9364)" class="st2" width="1" height="16.4"/>
	<rect x="128.5" y="42.7" transform="matrix(0.719 -0.695 0.695 0.719 8.2292 106.7708)" class="st2" width="15.2" height="1"/>
	<rect x="104.8" y="41.7" transform="matrix(0.9267 -0.3759 0.3759 0.9267 -6.8479 49.3687)" class="st2" width="36.6" height="1"/>
	<rect x="158.1" y="35" transform="matrix(0.5903 -0.8072 0.8072 0.5903 31.889 144.8469)" class="st2" width="1" height="12"/>
	<rect x="103.4" y="25.5" class="st2" width="12.1" height="1"/>
	<rect x="75.6" y="43.5" transform="matrix(0.4599 -0.888 0.888 0.4599 8.0709 101.1827)" class="st2" width="23.2" height="1"/>
	<rect x="73.8" y="42" transform="matrix(0.9623 -0.2719 0.2719 0.9623 -10.2178 22.0039)" class="st2" width="1" height="11.7"/>
	<rect x="64.6" y="70.6" transform="matrix(0.6754 -0.7375 0.7375 0.6754 -29.8166 74.453)" class="st2" width="10.1" height="1"/>
	
		<rect x="39.4" y="116.6" transform="matrix(0.5879 -0.8089 0.8089 0.5879 -75.0718 86.7966)" class="st2" width="16.5" height="1"/>
	
		<rect x="59.3" y="111.1" transform="matrix(0.9709 -0.2397 0.2397 0.9709 -26.1482 17.7152)" class="st2" width="1" height="10.6"/>
	<rect x="56.4" y="148.3" transform="matrix(0.9878 -0.156 0.156 0.9878 -22.4153 11.8957)" class="st2" width="16.4" height="1"/>
	<rect x="60.5" y="152.3" transform="matrix(0.7025 -0.7117 0.7117 0.7025 -95.499 90.9136)" class="st2" width="1" height="14.8"/>
	<rect x="87" y="150.5" transform="matrix(0.8788 -0.4772 0.4772 0.8788 -67.1979 61.5112)" class="st2" width="1" height="25.1"/>
	<rect x="107.5" y="154" class="st2" width="8" height="1"/>
	<rect x="118.8" y="168" transform="matrix(0.146 -0.9893 0.9893 0.146 -60.9398 266.4044)" class="st2" width="10.1" height="1"/>
	<rect x="149" y="142.1" transform="matrix(0.124 -0.9923 0.9923 0.124 -24.0867 285.2152)" class="st2" width="1" height="28.2"/>
	<g class="st3">
		<text transform="matrix(1 0 0 1 103.5 123.5)" class="st4 st5 st6">Plan Causal Lab</text>
	</g>
</g>
</svg>
